<svg xmlns="http://www.w3.org/2000/svg" width="600" height="400" viewBox="0 0 600 400"><rect width="100%" height="100%" fill="#333639"/><path fill="#FFFFFF" d="M132.105 210.965c6.89 0 10.54-3.89 10.54-12.87v-14.35h-5.82v14.96c0 5.25-1.72 7.06-4.72 7.06-2.99 0-4.63-1.81-4.63-7.06v-14.96h-6.07v14.35c0 8.98 3.77 12.87 10.7 12.87Zm16.24 7.05h6.03v-5.94l-.21-3.24c1.44 1.35 3.08 2.13 4.84 2.13 4.39 0 8.57-4.02 8.57-10.99 0-6.27-3.04-10.33-7.96-10.33-2.13 0-4.18 1.07-5.78 2.5h-.16l-.41-2.01h-4.92Zm9.26-11.97c-1.02 0-2.17-.33-3.23-1.31v-8.32c1.18-1.27 2.25-1.85 3.48-1.85 2.42 0 3.53 1.85 3.53 5.5 0 4.18-1.68 5.98-3.78 5.98Zm19.77 4.92c1.35 0 2.37-.2 3.03-.49l-.74-4.47c-.33.08-.49.08-.74.08-.49 0-1.06-.41-1.06-1.68v-22.67h-6.03v22.43c0 4.1 1.4 6.8 5.54 6.8Zm14.92 0c5.13 0 9.88-3.89 9.88-10.66 0-6.76-4.75-10.66-9.88-10.66-5.17 0-9.92 3.9-9.92 10.66 0 6.77 4.75 10.66 9.92 10.66Zm0-4.88c-2.5 0-3.73-2.25-3.73-5.78 0-3.52 1.23-5.78 3.73-5.78 2.46 0 3.73 2.26 3.73 5.78 0 3.53-1.27 5.78-3.73 5.78Zm18.7 4.88c2.29 0 4.18-1.06 5.9-2.58h.16l.41 2.09h4.92v-11.64c0-6.24-2.87-9.19-8.07-9.19-3.2 0-6.11 1.11-8.69 2.67l2.17 3.97c1.97-1.14 3.65-1.84 5.37-1.84 2.21 0 3.07 1.15 3.2 2.95-8.04.82-11.44 3.16-11.44 7.42 0 3.45 2.34 6.15 6.07 6.15Zm2.05-4.67c-1.44 0-2.34-.62-2.34-1.93 0-1.56 1.39-2.79 5.66-3.36v3.57c-1.07 1.06-1.97 1.72-3.32 1.72Zm21.69 4.67c1.96 0 3.97-1.06 5.41-2.5h.16l.41 2.01h4.92v-28.74h-6.03v6.93l.25 3.11c-1.39-1.31-2.75-2.13-5-2.13-4.31 0-8.45 4.02-8.45 10.66 0 6.64 3.28 10.66 8.33 10.66Zm1.55-4.92c-2.33 0-3.69-1.8-3.69-5.82 0-3.85 1.73-5.66 3.65-5.66 1.11 0 2.3.33 3.36 1.31v8.33c-.98 1.35-2 1.84-3.32 1.84Zm34.53 4.92c3.48 0 6.43-1.35 8.65-3.93l-3.2-3.78c-1.31 1.4-3.04 2.51-5.21 2.51-3.93 0-6.48-3.2-6.48-8.7 0-5.37 2.91-8.61 6.56-8.61 1.93 0 3.37.9 4.72 2.13l3.2-3.85c-1.81-1.84-4.6-3.48-8.04-3.48-6.76 0-12.63 5.16-12.63 14.02 0 8.98 5.66 13.69 12.43 13.69Zm20.95 0c5.12 0 9.88-3.89 9.88-10.66 0-6.76-4.76-10.66-9.88-10.66-5.17 0-9.93 3.9-9.93 10.66 0 6.77 4.76 10.66 9.93 10.66Zm0-4.88c-2.5 0-3.73-2.25-3.73-5.78 0-3.52 1.23-5.78 3.73-5.78 2.46 0 3.73 2.26 3.73 5.78 0 3.53-1.27 5.78-3.73 5.78Zm18.36 4.39h6.97l6.65-20.34h-5.78l-2.67 9.6c-.53 2.01-1.07 4.14-1.56 6.27h-.16c-.53-2.13-1.07-4.26-1.6-6.27l-2.62-9.6h-6.07Zm25.55.49c2.42 0 5.12-.86 7.21-2.29l-2.01-3.65c-1.47.9-2.87 1.35-4.38 1.35-2.71 0-4.76-1.35-5.29-4.31h12.18c.12-.49.24-1.59.24-2.66 0-5.54-2.87-9.76-8.65-9.76-4.88 0-9.59 4.06-9.59 10.66 0 6.73 4.47 10.66 10.29 10.66Zm-4.51-12.87c.41-2.58 2.05-3.86 3.93-3.86 2.42 0 3.41 1.6 3.41 3.86Zm16.64 12.38h6.03v-11.81c1.07-2.75 2.95-3.73 4.47-3.73.86 0 1.48.12 2.21.33l.99-5.21c-.58-.24-1.27-.41-2.42-.41-2.09 0-4.31 1.31-5.78 4.06h-.17l-.41-3.57h-4.92Zm24.52 0h6.03v-20.34h-6.03Zm2.99-23.33c2.05 0 3.49-1.31 3.49-3.16 0-1.84-1.44-3.11-3.49-3.11-2 0-3.48 1.27-3.48 3.11 0 1.85 1.48 3.16 3.48 3.16Zm8.33 23.33h6.03v-13.74c1.27-1.31 2.45-1.96 3.44-1.96 1.72 0 2.5.9 2.5 3.85v11.85h6.03v-13.74c1.31-1.31 2.46-1.96 3.48-1.96 1.72 0 2.5.9 2.5 3.85v11.85h6.03v-12.63c0-5.08-1.97-8.2-6.36-8.2-2.7 0-4.59 1.56-6.39 3.4-1.03-2.17-2.75-3.4-5.62-3.4-2.66 0-4.47 1.44-6.15 3.12h-.16l-.41-2.63h-4.92Zm40.26.49c2.3 0 4.18-1.06 5.9-2.58h.17l.41 2.09h4.92v-11.64c0-6.24-2.87-9.19-8.08-9.19-3.2 0-6.11 1.11-8.69 2.67l2.17 3.97c1.97-1.14 3.65-1.84 5.37-1.84 2.22 0 3.08 1.15 3.2 2.95-8.04.82-11.44 3.16-11.44 7.42 0 3.45 2.34 6.15 6.07 6.15Zm2.05-4.67c-1.44 0-2.34-.62-2.34-1.93 0-1.56 1.4-2.79 5.66-3.36v3.57c-1.07 1.06-1.97 1.72-3.32 1.72Zm21.69 12.83c6.97 0 11.36-3.07 11.36-7.3 0-3.65-2.75-5.16-7.75-5.16h-3.28c-2.26 0-3.08-.5-3.08-1.52 0-.7.21-1.07.74-1.52a8 8 0 0 0 2.46.41c4.47 0 7.99-2.17 7.99-6.84 0-1.07-.28-2.05-.65-2.67h3.24v-4.39h-7.42c-.91-.32-2.01-.49-3.16-.49-4.39 0-8.41 2.46-8.41 7.34 0 2.38 1.32 4.31 2.75 5.29v.16c-1.31.91-2.29 2.34-2.29 3.82 0 1.68.82 2.74 1.88 3.44v.17c-1.88 1.06-2.91 2.41-2.91 4.1 0 3.6 3.77 5.16 8.53 5.16Zm.45-18.74c-1.6 0-2.79-1.14-2.79-3.4 0-2.17 1.19-3.28 2.79-3.28s2.79 1.15 2.79 3.28c0 2.26-1.19 3.4-2.79 3.4Zm.49 14.97c-2.7 0-4.51-.82-4.51-2.34 0-.74.37-1.35 1.11-2.01.65.17 1.47.25 2.87.25h2.09c2.01 0 3.12.33 3.12 1.6 0 1.39-1.97 2.5-4.68 2.5Zm22.06-4.39c2.42 0 5.12-.86 7.22-2.29l-2.01-3.65c-1.48.9-2.87 1.35-4.39 1.35-2.71 0-4.76-1.35-5.29-4.31h12.18c.12-.49.24-1.59.24-2.66 0-5.54-2.87-9.76-8.65-9.76-4.88 0-9.59 4.06-9.59 10.66 0 6.73 4.47 10.66 10.29 10.66Zm-4.51-12.87c.41-2.58 2.05-3.86 3.94-3.86 2.41 0 3.4 1.6 3.4 3.86Z"/></svg>